<?xml version="1.0" encoding="UTF-8" standalone="no"?>
<!-- Created with Inkscape (http://www.inkscape.org/) -->

<svg
   xmlns:dc="http://purl.org/dc/elements/1.1/"
   xmlns:cc="http://creativecommons.org/ns#"
   xmlns:rdf="http://www.w3.org/1999/02/22-rdf-syntax-ns#"
   xmlns:svg="http://www.w3.org/2000/svg"
   xmlns="http://www.w3.org/2000/svg"
   xmlns:xlink="http://www.w3.org/1999/xlink"
   xmlns:sodipodi="http://sodipodi.sourceforge.net/DTD/sodipodi-0.dtd"
   xmlns:inkscape="http://www.inkscape.org/namespaces/inkscape"
   width="744.09448819"
   height="1052.3622047"
   id="svg2"
   version="1.1"
   inkscape:version="0.48.0 r9654"
   sodipodi:docname="drawing.svg"
   inkscape:export-filename="/Users/dune/Sites/ProjetsTutv3/images/organisation.png"
   inkscape:export-xdpi="80"
   inkscape:export-ydpi="80">
  <defs
     id="defs4">
    <inkscape:path-effect
       effect="spiro"
       id="path-effect5239"
       is_visible="true" />
    <inkscape:path-effect
       effect="spiro"
       id="path-effect5235"
       is_visible="true" />
    <inkscape:path-effect
       effect="spiro"
       id="path-effect5231"
       is_visible="true" />
    <inkscape:path-effect
       effect="spiro"
       id="path-effect5227"
       is_visible="true" />
    <inkscape:path-effect
       is_visible="true"
       id="path-effect4364"
       effect="spiro" />
    <inkscape:path-effect
       effect="spiro"
       id="path-effect4360"
       is_visible="true" />
    <inkscape:path-effect
       effect="spiro"
       id="path-effect4348"
       is_visible="true" />
    <linearGradient
       inkscape:collect="always"
       id="linearGradient3325">
      <stop
         style="stop-color:#000000;stop-opacity:1;"
         offset="0"
         id="stop3327" />
      <stop
         style="stop-color:#000000;stop-opacity:0;"
         offset="1"
         id="stop3329" />
    </linearGradient>
    <linearGradient
       inkscape:collect="always"
       id="linearGradient3131">
      <stop
         style="stop-color:#5a2ca0;stop-opacity:1;"
         offset="0"
         id="stop3133" />
      <stop
         style="stop-color:#5a2ca0;stop-opacity:0;"
         offset="1"
         id="stop3135" />
    </linearGradient>
    <inkscape:path-effect
       effect="spiro"
       id="path-effect3119"
       is_visible="true" />
    <inkscape:path-effect
       effect="spiro"
       id="path-effect3115"
       is_visible="true" />
    <inkscape:path-effect
       effect="spiro"
       id="path-effect3111"
       is_visible="true" />
    <linearGradient
       inkscape:collect="always"
       id="linearGradient3095">
      <stop
         style="stop-color:#5a2ca0;stop-opacity:1;"
         offset="0"
         id="stop3097" />
      <stop
         style="stop-color:#5a2ca0;stop-opacity:0;"
         offset="1"
         id="stop3099" />
    </linearGradient>
    <linearGradient
       inkscape:collect="always"
       id="linearGradient3087">
      <stop
         style="stop-color:#5a2ca0;stop-opacity:1;"
         offset="0"
         id="stop3089" />
      <stop
         style="stop-color:#5a2ca0;stop-opacity:0;"
         offset="1"
         id="stop3091" />
    </linearGradient>
    <radialGradient
       inkscape:collect="always"
       xlink:href="#linearGradient3087"
       id="radialGradient3105"
       gradientUnits="userSpaceOnUse"
       gradientTransform="matrix(8.5211342,14.172004,-7.2439188,4.3555168,-3319.2482,-9541.2071)"
       cx="625.88818"
       cy="193.82175"
       fx="625.88818"
       fy="193.82175"
       r="6.4285583" />
    <radialGradient
       inkscape:collect="always"
       xlink:href="#linearGradient3095"
       id="radialGradient3271"
       gradientUnits="userSpaceOnUse"
       gradientTransform="matrix(5.5661333,4.993832,-2.8225921,3.1460665,-2386.3495,-3281.155)"
       cx="613.91595"
       cy="147.30728"
       fx="613.91595"
       fy="147.30728"
       r="16.428572" />
    <radialGradient
       inkscape:collect="always"
       xlink:href="#linearGradient3087"
       id="radialGradient3273"
       gradientUnits="userSpaceOnUse"
       gradientTransform="matrix(8.5211341,14.172004,-7.2439187,4.3555168,-3319.2482,-9541.2073)"
       cx="625.88818"
       cy="193.82175"
       fx="625.88818"
       fy="193.82175"
       r="6.4285583" />
    <radialGradient
       inkscape:collect="always"
       xlink:href="#linearGradient3131"
       id="radialGradient3275"
       gradientUnits="userSpaceOnUse"
       gradientTransform="matrix(5.089552,2.3451059,-0.6482892,1.406962,-2511.4482,-1532.1255)"
       cx="636.43658"
       cy="149.64709"
       fx="636.43658"
       fy="149.64709"
       r="14.642858" />
    <radialGradient
       inkscape:collect="always"
       xlink:href="#linearGradient3131"
       id="radialGradient3277"
       gradientUnits="userSpaceOnUse"
       gradientTransform="matrix(7.5285853,1.9548661,-0.38934263,1.499411,-4086.1845,-1301.5229)"
       cx="628.70752"
       cy="159.48367"
       fx="628.70752"
       fy="159.48367"
       r="14.642858" />
    <radialGradient
       inkscape:collect="always"
       xlink:href="#linearGradient3325"
       id="radialGradient3331"
       cx="615"
       cy="25.790756"
       fx="615"
       fy="25.790756"
       r="36"
       gradientTransform="matrix(1.9999999,2.1666667,-0.79603668,0.73480378,-594.46955,-1328.6604)"
       gradientUnits="userSpaceOnUse" />
    <pattern
       patternUnits="userSpaceOnUse"
       width="31.833547"
       height="47.718182"
       patternTransform="translate(614.58911,135.94527)"
       id="pattern4376">
      <g
         transform="matrix(0.96924364,0,0,1,-568.4311,-135.21932)"
         id="use4366"
         style="fill:#5500d4;fill-opacity:1">
        <path
           transform="matrix(0.38000023,0,0,0.38099776,365.35699,83.428917)"
           sodipodi:open="true"
           sodipodi:end="6.0768283"
           sodipodi:start="0"
           d="m 641.42857,152.36218 c 0,9.07325 -7.35532,16.42857 -16.42857,16.42857 -9.07325,0 -16.42857,-7.35532 -16.42857,-16.42857 0,-9.07325 7.35532,-16.42857 16.42857,-16.42857 7.77589,0 14.48678,5.45152 16.08002,13.06243"
           sodipodi:ry="16.428572"
           sodipodi:rx="16.428572"
           sodipodi:cy="152.36218"
           sodipodi:cx="625"
           id="path5151"
           style="fill:url(#radialGradient5155);fill-opacity:1;stroke:none"
           sodipodi:type="arc" />
        <path
           inkscape:connector-curvature="0"
           id="path5153"
           d="m 599.90625,148.53125 0,0.1875 -13.4375,5.5625 0.75,1.28125 12.6875,-5.25 0,16.90625 0.0937,0 -1.34375,15.53125 2.0625,0.1875 1.40625,-15.71875 1.34375,0 1.375,15.59375 2.09375,-0.1875 -1.375,-15.78125 0,-16.40625 13.21875,4.8125 0.53125,-1.46875 -13.75,-5.03125 0,-0.21875 -5.65625,0 z"
           style="fill:url(#radialGradient5157);fill-opacity:1;stroke:none" />
      </g>
    </pattern>
    <radialGradient
       inkscape:collect="always"
       xlink:href="#linearGradient3095"
       id="radialGradient5155"
       gradientUnits="userSpaceOnUse"
       gradientTransform="matrix(14.64771,13.107248,-7.4278694,8.2574409,-7330.56,-9194.0959)"
       cx="613.91595"
       cy="147.30728"
       fx="613.91595"
       fy="147.30728"
       r="16.428572" />
    <radialGradient
       inkscape:collect="always"
       xlink:href="#linearGradient3087"
       id="radialGradient5157"
       gradientUnits="userSpaceOnUse"
       gradientTransform="matrix(8.521134,14.172004,-7.2439186,4.3555167,-3343.1562,-9567.4101)"
       cx="625.88818"
       cy="193.82175"
       fx="625.88818"
       fy="193.82175"
       r="6.4285583" />
  </defs>
  <sodipodi:namedview
     id="base"
     pagecolor="#ffffff"
     bordercolor="#666666"
     borderopacity="1.0"
     inkscape:pageopacity="0.0"
     inkscape:pageshadow="2"
     inkscape:zoom="0.98994949"
     inkscape:cx="185.88175"
     inkscape:cy="739.38342"
     inkscape:document-units="px"
     inkscape:current-layer="layer1"
     showgrid="false"
     inkscape:snap-midpoints="true"
     inkscape:window-width="1208"
     inkscape:window-height="746"
     inkscape:window-x="55"
     inkscape:window-y="81"
     inkscape:window-maximized="0"
     inkscape:snap-global="false" />
  <metadata
     id="metadata7">
    <rdf:RDF>
      <cc:Work
         rdf:about="">
        <dc:format>image/svg+xml</dc:format>
        <dc:type
           rdf:resource="http://purl.org/dc/dcmitype/StillImage" />
        <dc:title></dc:title>
      </cc:Work>
    </rdf:RDF>
  </metadata>
  <g
     inkscape:label="Layer 1"
     inkscape:groupmode="layer"
     id="layer1"
     style="display:inline">
    <rect
       style="fill:#daedf8;fill-opacity:1;stroke:#bee8f2;stroke-opacity:1"
       id="rect2985"
       width="503.97327"
       height="420.22348"
       x="65.997833"
       y="17.965975"
       rx="20"
       ry="20"
       inkscape:export-xdpi="80"
       inkscape:export-ydpi="80" />
    <rect
       transform="scale(1,-1)"
       ry="20"
       rx="10.8"
       y="-406.4563"
       x="317.73096"
       height="351.53311"
       width="233.34525"
       id="rect3013"
       style="fill:#3771c8;fill-opacity:0.87610622999999999;stroke:none" />
    <rect
       style="fill:#3771c8;fill-opacity:0.87610622999999999;stroke:none"
       id="rect2987"
       width="230.95367"
       height="351.23694"
       x="81.204491"
       y="-407.17059"
       rx="10.8"
       ry="20"
       transform="scale(1,-1)" />
    <path
       sodipodi:type="arc"
       style="fill:#87aade;fill-opacity:0.87610622999999999;stroke:none"
       id="path4284"
       sodipodi:cx="292.43915"
       sodipodi:cy="211.41019"
       sodipodi:rx="93.43911"
       sodipodi:ry="53.033009"
       d="m 385.87826,211.41019 a 93.43911,53.033009 0 1 1 -1.98242,-10.86623"
       sodipodi:start="0"
       sodipodi:end="6.0768283"
       sodipodi:open="true"
       transform="matrix(0.57802137,-0.02286488,0.03163773,0.35767433,252.99184,301.83099)" />
    <path
       transform="translate(-10.000031,-112.14286)"
       sodipodi:open="true"
       sodipodi:end="6.0768283"
       sodipodi:start="0"
       d="m 641.42857,152.36218 a 16.428572,16.428572 0 1 1 -0.34855,-3.36614"
       sodipodi:ry="16.428572"
       sodipodi:rx="16.428572"
       sodipodi:cy="152.36218"
       sodipodi:cx="625"
       id="path3263"
       style="fill:url(#radialGradient3271);fill-opacity:1;stroke:none"
       sodipodi:type="arc" />
    <rect
       rx="0"
       ry="0"
       y="55.79076"
       x="608.57147"
       height="45"
       width="12.857117"
       id="rect3265"
       style="fill:url(#radialGradient3273);fill-opacity:1;stroke:none" />
    <rect
       y="60.219334"
       x="621.42859"
       height="7.1428571"
       width="29.285715"
       id="rect3267"
       style="fill:url(#radialGradient3275);fill-opacity:1;stroke:none" />
    <rect
       style="fill:url(#radialGradient3277);fill-opacity:1;stroke:none"
       id="rect3269"
       width="29.285715"
       height="7.1428571"
       x="579.28571"
       y="60.219334" />
    <flowRoot
       xml:space="preserve"
       style="font-size:40px;font-style:normal;font-variant:normal;font-weight:bold;font-stretch:normal;line-height:125%;letter-spacing:0px;word-spacing:0px;fill:#000000;fill-opacity:1;stroke:none;font-family:PilGi;-inkscape-font-specification:PilGi Bold"
       id="flowRoot4164"><flowRegion
         id="flowRegion4166"><use
           x="0"
           y="0"
           xlink:href="#rect2987"
           id="use4168" /></flowRegion><flowPara
         id="flowPara4170"
         style="-inkscape-font-specification:Arial;font-family:Arial;font-weight:normal;font-style:normal;font-stretch:normal;font-variant:normal;font-size:32px">Etudiants</flowPara></flowRoot>    <path
       sodipodi:type="arc"
       style="fill:#daedf8;fill-opacity:0.87450981;stroke:none"
       id="path4235"
       sodipodi:cx="292.43915"
       sodipodi:cy="211.41019"
       sodipodi:rx="93.43911"
       sodipodi:ry="53.033009"
       d="m 385.87826,211.41019 a 93.43911,53.033009 0 1 1 -1.98242,-10.86623"
       sodipodi:start="0"
       sodipodi:end="6.0768283"
       sodipodi:open="true"
       transform="matrix(1.1669402,-0.16502423,0.16953018,1.1772871,-71.023335,2.6773846)" />
    <g
       id="use4201"
       transform="translate(-259.64982,36.365491)"
       style="fill:#000080">
      <path
         sodipodi:type="arc"
         style="fill:#000080;fill-opacity:1;stroke:none"
         id="path4227"
         sodipodi:cx="625"
         sodipodi:cy="152.36218"
         sodipodi:rx="16.428572"
         sodipodi:ry="16.428572"
         d="m 641.42857,152.36218 c 0,9.07325 -7.35532,16.42857 -16.42857,16.42857 -9.07325,0 -16.42857,-7.35532 -16.42857,-16.42857 0,-9.07325 7.35532,-16.42857 16.42857,-16.42857 7.77589,0 14.48678,5.45152 16.08002,13.06243"
         sodipodi:start="0"
         sodipodi:end="6.0768283"
         sodipodi:open="true"
         transform="matrix(0.38000023,0,0,0.38099776,365.35699,83.428917)" />
      <path
         style="fill:#000080;fill-opacity:1;stroke:none"
         d="m 599.90625,148.53125 0,0.1875 -13.4375,5.5625 0.75,1.28125 12.6875,-5.25 0,16.90625 0.0937,0 -1.34375,15.53125 2.0625,0.1875 1.40625,-15.71875 1.34375,0 1.375,15.59375 2.09375,-0.1875 -1.375,-15.78125 0,-16.40625 13.21875,4.8125 0.53125,-1.46875 -13.75,-5.03125 0,-0.21875 -5.65625,0 z"
         id="path4229"
         inkscape:connector-curvature="0" />
    </g>
    <use
       x="0"
       y="0"
       xlink:href="#use4201"
       id="use4211"
       transform="matrix(0.84621822,0,0,0.85181607,-27.482337,19.365197)"
       width="744.09448"
       height="1052.3622" />
    <use
       x="0"
       y="0"
       xlink:href="#use4211"
       id="use4213"
       transform="translate(22.223356,13.131983)"
       width="744.09448"
       height="1052.3622" />
    <use
       height="1052.3622"
       width="744.09448"
       transform="translate(-31.314729,6.0609156)"
       id="use4215"
       xlink:href="#use4211"
       y="0"
       x="0" />
    <use
       x="0"
       y="0"
       xlink:href="#use4211"
       id="use4217"
       transform="translate(9.0913728,44.446712)"
       width="744.09448"
       height="1052.3622" />
    <use
       height="1052.3622"
       width="744.09448"
       transform="translate(-18.182745,36.365492)"
       id="use4219"
       xlink:href="#use4211"
       y="0"
       x="0" />
    <text
       xml:space="preserve"
       style="font-size:40px;font-style:normal;font-variant:normal;font-weight:normal;font-stretch:normal;line-height:125%;letter-spacing:0px;word-spacing:0px;fill:#000000;fill-opacity:1;stroke:none;font-family:PilGi;-inkscape-font-specification:PilGi"
       id="text4239"
       sodipodi:linespacing="125%"
       transform="matrix(-1,0,0,-1,605.60154,404.02936)"><textPath
         xlink:href="#path4235"
         id="textPath4243"><tspan
   style="font-size:16px;font-style:normal;font-variant:normal;font-weight:normal;font-stretch:normal;font-family:Sans;-inkscape-font-specification:Helvetica"
   id="tspan4241">projet tuteuré</tspan></textPath></text>
    <text
       xml:space="preserve"
       style="font-size:40px;font-style:normal;font-variant:normal;font-weight:normal;font-stretch:normal;line-height:125%;letter-spacing:0px;word-spacing:0px;fill:#000000;fill-opacity:1;stroke:none;font-family:PilGi;-inkscape-font-specification:PilGi"
       x="107.07617"
       y="25.037045"
       id="text4246"
       sodipodi:linespacing="125%"><tspan
         sodipodi:role="line"
         id="tspan4248"
         x="107.07617"
         y="25.037045" /></text>
    <path
       transform="matrix(0.52321266,-0.02744834,0.02863781,0.42937319,4.0774949,281.17654)"
       sodipodi:open="true"
       sodipodi:end="6.0768283"
       sodipodi:start="0"
       d="m 385.87826,211.41019 a 93.43911,53.033009 0 1 1 -1.98242,-10.86623"
       sodipodi:ry="53.033009"
       sodipodi:rx="93.43911"
       sodipodi:cy="211.41019"
       sodipodi:cx="292.43915"
       id="path4276"
       style="fill:#87aade;fill-opacity:0.87610622999999999;stroke:none"
       sodipodi:type="arc" />
    <path
       style="fill:#daedf8;fill-opacity:1;stroke:none"
       d="m 427.30228,338.37508 c -3.27919,0 -5.9375,2.79163 -5.9375,6.21875 0,3.42712 2.65831,6.1875 5.9375,6.1875 3.27919,0 5.9375,-2.76038 5.9375,-6.1875 l -0.125,-1.28125 c -0.57582,-2.87477 -3.00219,-4.9375 -5.8125,-4.9375 z m 2.3125,12.96875 -0.0937,0.15625 -4.9375,0 0,0.0625 -0.0625,-0.125 -11.625,5.5 0.65625,1.34375 11.03125,-5.21875 0,15.3125 -3.8125,14.40625 1.9375,-0.40625 3.625,-13.71875 1.8125,0 3.1875,14.21875 1.71875,-0.40625 -3.125,-14.0625 0,-14.96875 10.6875,6.46875 0.875,-1.375 -11.5625,-7 0,-0.0312 -0.0625,0 -0.25,-0.15625 z"
       id="path5137"
       inkscape:connector-curvature="0"
       inkscape:export-xdpi="80"
       inkscape:export-ydpi="80" />
    <path
       inkscape:connector-curvature="0"
       id="path5189"
       d="m 456.77146,320.46716 c -3.27919,0 -5.9375,2.79163 -5.9375,6.21875 0,3.42712 2.65831,6.1875 5.9375,6.1875 3.27919,0 5.9375,-2.76038 5.9375,-6.1875 l -0.125,-1.28125 c -0.57582,-2.87477 -3.00219,-4.9375 -5.8125,-4.9375 z m 2.3125,12.96875 -0.0937,0.15625 -4.9375,0 0,0.0625 -0.0625,-0.125 -11.625,5.5 0.65625,1.34375 11.03125,-5.21875 0,15.3125 -3.8125,14.40625 1.9375,-0.40625 3.625,-13.71875 1.8125,0 3.1875,14.21875 1.71875,-0.40625 -3.125,-14.0625 0,-14.96875 10.6875,6.46875 0.875,-1.375 -11.5625,-7 0,-0.0312 -0.0625,0 -0.25,-0.15625 z"
       style="fill:#daedf8;fill-opacity:1;stroke:none" />
    <path
       style="fill:#daedf8;fill-opacity:1;stroke:none"
       d="m 403.28197,325.66151 c -3.27919,0 -5.9375,2.79163 -5.9375,6.21875 0,3.42712 2.65831,6.1875 5.9375,6.1875 3.27919,0 5.9375,-2.76038 5.9375,-6.1875 l -0.125,-1.28125 c -0.57582,-2.87477 -3.00219,-4.9375 -5.8125,-4.9375 z m 2.3125,12.96875 -0.0937,0.15625 -4.9375,0 0,0.0625 -0.0625,-0.125 -11.625,5.5 0.65625,1.34375 11.03125,-5.21875 0,15.3125 -3.8125,14.40625 1.9375,-0.40625 3.625,-13.71875 1.8125,0 3.1875,14.21875 1.71875,-0.40625 -3.125,-14.0625 0,-14.96875 10.6875,6.46875 0.875,-1.375 -11.5625,-7 0,-0.0312 -0.0625,0 -0.25,-0.15625 z"
       id="path5191"
       inkscape:connector-curvature="0" />
    <path
       inkscape:connector-curvature="0"
       id="path5193"
       d="m 161.35967,338.26123 c -2.84785,0 -5.15648,2.3682 -5.15648,5.27549 0,2.9073 2.30863,5.24899 5.15648,5.24899 2.84784,0 5.15648,-2.34169 5.15648,-5.24899 l -0.10856,-1.08691 c -0.50008,-2.43872 -2.60728,-4.18858 -5.04792,-4.18858 z m 2.00831,11.00166 -0.0814,0.13255 -4.28802,0 0,0.053 -0.0543,-0.10604 -10.09585,4.66576 0.56993,1.13993 9.5802,-4.42717 0,12.98991 -3.31101,12.22112 1.68264,-0.34463 3.14817,-11.6379 1.57408,0 2.76822,12.06206 1.49266,-0.34463 -2.71393,-11.92951 0,-12.6983 9.28166,5.48757 0.7599,-1.16644 -10.04156,-5.93824 0,-0.0265 -0.0543,0 -0.21712,-0.13255 z"
       style="fill:#daedf8;fill-opacity:1;stroke:none" />
    <path
       style="fill:#daedf8;fill-opacity:1;stroke:none"
       d="m 181.66815,317.88338 c -2.84784,0 -5.15647,2.36819 -5.15647,5.27549 0,2.9073 2.30863,5.24898 5.15647,5.24898 2.84785,0 5.15648,-2.34168 5.15648,-5.24898 l -0.10855,-1.08691 c -0.50008,-2.43873 -2.60728,-4.18858 -5.04793,-4.18858 z m 2.00832,11.00165 -0.0814,0.13255 -4.28802,0 0,0.053 -0.0543,-0.10605 -10.09584,4.66577 0.56993,1.13993 9.58019,-4.42717 0,12.98991 -3.311,12.22112 1.68264,-0.34463 3.14817,-11.6379 1.57408,0 2.76822,12.06206 1.49266,-0.34463 -2.71394,-11.92951 0,-12.6983 9.28167,5.48757 0.7599,-1.16644 -10.04157,-5.93824 0,-0.0265 -0.0543,0 -0.21712,-0.13255 z"
       id="path5195"
       inkscape:connector-curvature="0" />
    <path
       inkscape:connector-curvature="0"
       id="path5197"
       d="m 131.56029,328.72669 c -2.84784,0 -5.15648,2.3682 -5.15648,5.27549 0,2.9073 2.30864,5.24899 5.15648,5.24899 2.84785,0 5.15648,-2.34169 5.15648,-5.24899 l -0.10855,-1.08691 c -0.50008,-2.43872 -2.60729,-4.18858 -5.04793,-4.18858 z m 2.00832,11.00166 -0.0814,0.13255 -4.28802,0 0,0.053 -0.0543,-0.10604 -10.09584,4.66576 0.56993,1.13993 9.58019,-4.42717 0,12.98991 -3.311,12.22112 1.68264,-0.34463 3.14817,-11.6379 1.57408,0 2.76822,12.06206 1.49266,-0.34463 -2.71394,-11.92951 0,-12.6983 9.28167,5.48757 0.7599,-1.16644 -10.04157,-5.93824 0,-0.0265 -0.0543,0 -0.21712,-0.13255 z"
       style="fill:#daedf8;fill-opacity:1;stroke:none" />
    <g
       style="fill:#1f1c24"
       transform="translate(-0.99572572,48.242217)"
       id="g5199">
      <path
         transform="matrix(0.38000023,0,0,0.38099776,365.35699,83.428917)"
         sodipodi:open="true"
         sodipodi:end="6.0768283"
         sodipodi:start="0"
         d="m 641.42857,152.36218 c 0,9.07325 -7.35532,16.42857 -16.42857,16.42857 -9.07325,0 -16.42857,-7.35532 -16.42857,-16.42857 0,-9.07325 7.35532,-16.42857 16.42857,-16.42857 7.77589,0 14.48678,5.45152 16.08002,13.06243"
         sodipodi:ry="16.428572"
         sodipodi:rx="16.428572"
         sodipodi:cy="152.36218"
         sodipodi:cx="625"
         id="path5201"
         style="fill:#1f1c24;fill-opacity:1;stroke:none"
         sodipodi:type="arc" />
      <path
         inkscape:connector-curvature="0"
         id="path5203"
         d="m 599.90625,148.53125 0,0.1875 -13.4375,5.5625 0.75,1.28125 12.6875,-5.25 0,16.90625 0.0937,0 -1.34375,15.53125 2.0625,0.1875 1.40625,-15.71875 1.34375,0 1.375,15.59375 2.09375,-0.1875 -1.375,-15.78125 0,-16.40625 13.21875,4.8125 0.53125,-1.46875 -13.75,-5.03125 0,-0.21875 -5.65625,0 z"
         style="fill:#1f1c24;fill-opacity:1;stroke:none" />
    </g>
    <text
       xml:space="preserve"
       style="font-size:40px;font-style:normal;font-variant:normal;font-weight:normal;font-stretch:normal;line-height:125%;letter-spacing:0px;word-spacing:0px;fill:#000000;fill-opacity:1;stroke:none;font-family:PilGi;-inkscape-font-specification:PilGi"
       x="611.90649"
       y="231.88939"
       id="text5205"
       sodipodi:linespacing="125%"><tspan
         sodipodi:role="line"
         id="tspan5207"
         x="611.90649"
         y="231.88939"
         style="font-size:22px">client</tspan></text>
    <path
       style="fill:none;stroke:#000000;stroke-width:1px;stroke-linecap:butt;stroke-linejoin:miter;stroke-opacity:1"
       d="m 604.28571,199.50504 0,0"
       id="path5229"
       inkscape:path-effect="#path-effect5231"
       inkscape:original-d="m 604.28571,199.50504 c 0,0 168.57143,94.28571 0,0 z"
       inkscape:connector-curvature="0" />
    <text
       xml:space="preserve"
       style="font-size:40px;font-style:normal;font-variant:normal;font-weight:normal;font-stretch:normal;line-height:125%;letter-spacing:0px;word-spacing:0px;fill:#000000;fill-opacity:1;stroke:none;font-family:PilGi;-inkscape-font-specification:PilGi"
       x="351.44952"
       y="218.87924"
       id="text5268"
       sodipodi:linespacing="125%"><tspan
         sodipodi:role="line"
         id="tspan5270"
         x="351.44952"
         y="218.87924"
         style="font-size:20px">tuteur</tspan></text>
    <text
       sodipodi:linespacing="125%"
       id="text5272"
       y="351.14832"
       x="441.19067"
       style="font-size:40px;font-style:normal;font-variant:normal;font-weight:normal;font-stretch:normal;line-height:125%;letter-spacing:0px;word-spacing:0px;fill:#000000;fill-opacity:1;stroke:none;font-family:PilGi;-inkscape-font-specification:PilGi"
       xml:space="preserve"><tspan
         style="font-size:20px"
         y="351.14832"
         x="441.19067"
         id="tspan5274"
         sodipodi:role="line" /><tspan
         style="font-size:20px"
         y="376.14832"
         x="441.19067"
         sodipodi:role="line"
         id="tspan5276">ressources</tspan></text>
    <text
       xml:space="preserve"
       style="font-size:40px;font-style:normal;font-variant:normal;font-weight:normal;font-stretch:normal;line-height:125%;letter-spacing:0px;word-spacing:0px;fill:#000000;fill-opacity:1;stroke:none;font-family:PilGi;-inkscape-font-specification:PilGi"
       x="173.50024"
       y="346.03665"
       id="text5278"
       sodipodi:linespacing="125%"><tspan
         sodipodi:role="line"
         id="tspan5280"
         x="173.50024"
         y="346.03665"
         style="font-size:20px" /><tspan
         id="tspan5282"
         sodipodi:role="line"
         x="173.50024"
         y="371.03665"
         style="font-size:20px">ressources</tspan></text>
    <g
       style="fill:#daedf8;fill-opacity:1"
       transform="translate(-136.41121,-13.131984)"
       id="g5284">
      <path
         transform="matrix(0.38000023,0,0,0.38099776,365.35699,83.428917)"
         sodipodi:open="true"
         sodipodi:end="6.0768283"
         sodipodi:start="0"
         d="m 641.42857,152.36218 c 0,9.07325 -7.35532,16.42857 -16.42857,16.42857 -9.07325,0 -16.42857,-7.35532 -16.42857,-16.42857 0,-9.07325 7.35532,-16.42857 16.42857,-16.42857 7.77589,0 14.48678,5.45152 16.08002,13.06243"
         sodipodi:ry="16.428572"
         sodipodi:rx="16.428572"
         sodipodi:cy="152.36218"
         sodipodi:cx="625"
         id="path5286"
         style="fill:#daedf8;fill-opacity:1;stroke:none"
         sodipodi:type="arc" />
      <path
         inkscape:connector-curvature="0"
         id="path5288"
         d="m 599.90625,148.53125 0,0.1875 -13.4375,5.5625 0.75,1.28125 12.6875,-5.25 0,16.90625 0.0937,0 -1.34375,15.53125 2.0625,0.1875 1.40625,-15.71875 1.34375,0 1.375,15.59375 2.09375,-0.1875 -1.375,-15.78125 0,-16.40625 13.21875,4.8125 0.53125,-1.46875 -13.75,-5.03125 0,-0.21875 -5.65625,0 z"
         style="fill:#daedf8;fill-opacity:1;stroke:none" />
    </g>
    <text
       sodipodi:linespacing="125%"
       id="text5290"
       y="167.23962"
       x="475.53589"
       style="font-size:40px;font-style:normal;font-variant:normal;font-weight:normal;font-stretch:normal;line-height:125%;letter-spacing:0px;word-spacing:0px;fill:#000000;fill-opacity:1;stroke:none;font-family:PilGi;-inkscape-font-specification:PilGi"
       xml:space="preserve"><tspan
         style="font-size:22px"
         y="167.23962"
         x="475.53589"
         id="tspan5292"
         sodipodi:role="line">pilote</tspan></text>
    <flowRoot
       id="flowRoot3843"
       style="font-size:40px;font-style:normal;font-variant:normal;font-weight:bold;font-stretch:normal;line-height:125%;letter-spacing:0px;word-spacing:0px;fill:#000000;fill-opacity:1;stroke:none;font-family:PilGi;-inkscape-font-specification:PilGi Bold"
       xml:space="preserve"
       transform="translate(238.396,-1.0101525)"><flowRegion
         id="flowRegion3845"><use
           id="use3847"
           xlink:href="#rect2987"
           y="0"
           x="0"
           width="744.09448"
           height="1052.3622" /></flowRegion><flowPara
         style="font-size:32px;font-style:normal;font-variant:normal;font-weight:normal;font-stretch:normal;font-family:Arial;-inkscape-font-specification:Arial"
         id="flowPara3849">Enseignants</flowPara></flowRoot>  </g>
  <g
     inkscape:groupmode="layer"
     id="layer3"
     inkscape:label="Bonhomme" />
</svg>
